<svg width="96" height="14" viewBox="0 0 468 71" fill="none" xmlns="http://www.w3.org/2000/svg">
<path d="M196.64 67.1799C182.18 67.1799 172.64 49.6899 172.64 33.45C172.64 16.14 181.56 4.49994 195.02 4.49994C210.39 4.49994 219.41 22.25 219.41 38.2299C219.41 55.5399 210.49 67.1799 196.62 67.1799H196.64ZM196.03 0.679932C176.9 0.679932 161.39 16.4199 161.39 35.8399C161.39 55.2599 176.9 70.9999 196.03 70.9999C215.16 70.9999 230.66 55.2599 230.66 35.8399C230.66 16.4199 215.15 0.679932 196.03 0.679932Z" fill="#007D55"/>
<path d="M22.07 39.8701C26.49 28.0901 32.17 12.9801 32.17 12.9801C32.17 12.9801 37.98 27.2801 43.07 39.8701H22.07ZM70.48 66.3401C68.09 66.3401 65.48 66.3401 63.97 64.3401C62.79 62.7301 61.02 58.4801 59.54 54.5701C58.06 50.6601 37.73 0.0500488 37.73 0.0500488L31.98 3.05005L13.15 50.4101C12.41 52.3101 11.03 55.9 9.8 58.61C7.3 64.14 6.04 65.7401 0.330002 66.4001H0V69.5901C0 69.5901 6.17999 69.3901 11.93 69.3901C17.68 69.3901 23.58 69.58 23.58 69.58V66.36H20.32C17.32 66.21 14.77 65.9701 14.77 62.5901C14.77 61.3701 15.03 59.1601 16.98 53.5401C17.13 53.1101 18.49 49.4901 20.33 44.5401H45C47.68 51.1801 49.88 56.6601 50.45 58.1601C51.38 60.5801 52.16 62.6 52.16 63.58C52.16 65.7001 50.59 66.36 47.3 66.36H45.22V69.5901C45.22 69.5901 54.13 69.3901 59.54 69.3901C64.95 69.3901 70.9 69.58 70.9 69.58V66.36L70.48 66.3401Z" fill="#007D55"/>
<path d="M305.09 54.0801C302.15 63.2601 298.39 65.7701 287.56 65.7701C274.16 65.7701 272.83 62.9701 272.83 56.1001V11.8501C272.83 5.4901 276.15 5.43008 281.17 5.33008H281.53V2.1001H280.09C271.26 2.2801 263.48 2.2701 254.69 2.1001H254.03V5.3201H254.39C259.39 5.4201 262.73 5.48009 262.73 11.8401V60.3001C262.787 61.1084 262.676 61.9199 262.402 62.6827C262.128 63.4454 261.698 64.1428 261.14 64.7301C259.79 66.0001 257.59 66.5201 254.42 66.3301H254.03V69.5801H254.4C262.81 69.3901 271.4 69.3901 279.72 69.3901C288.04 69.3901 295.87 69.3901 304 69.5801H304.29L307.99 54.2901L305.19 53.7801L305.09 54.0801Z" fill="#007D55"/>
<path d="M379.56 54.0801C376.63 63.2601 372.86 65.7701 362.04 65.7701C348.64 65.7701 347.3 62.9701 347.3 56.1001V11.8501C347.3 5.4901 350.62 5.43008 355.64 5.33008H356V2.1001H354.57C345.74 2.2801 337.96 2.2701 329.17 2.1001H328.5V5.3201H328.86C333.86 5.4201 337.2 5.48009 337.2 11.8401V60.3001C337.259 61.1077 337.149 61.9188 336.877 62.6815C336.605 63.4442 336.177 64.1419 335.62 64.7301C334.27 66.0001 332.07 66.5201 328.89 66.3301H328.5V69.5801H328.88C337.29 69.3901 345.88 69.3901 354.2 69.3901C362.52 69.3901 370.35 69.3901 378.47 69.5801H378.77L382.46 54.2901L379.66 53.7801L379.56 54.0801Z" fill="#007D55"/>
<path d="M434 67.1799C419.53 67.1799 410 49.6899 410 33.45C410 16.14 418.92 4.49994 432.38 4.49994C447.75 4.49994 456.77 22.25 456.77 38.2299C456.77 55.5399 447.85 67.1799 433.99 67.1799H434ZM433.39 0.679932C414.26 0.679932 398.75 16.4199 398.75 35.8399C398.75 55.2599 414.26 70.9999 433.39 70.9999C452.52 70.9999 468 55.2599 468 35.8399C468 16.4199 452.49 0.679932 433.37 0.679932" fill="#007D55"/>
<path d="M109.51 60.0799C109.51 62.6799 110.17 66.3699 116.95 66.3699C118.42 66.3699 118.95 66.3699 118.95 66.3699V69.5399C113.18 69.3399 107.8 69.2399 103.75 69.2399C99.49 69.2399 95.64 69.3399 91.18 69.5399V66.3399H92.74C95.99 66.3399 99.39 65.3999 99.39 60.0499V12.4999C99.39 7.88991 98.46 6.2799 94.78 5.5899C93.5286 5.34898 92.2503 5.27835 90.98 5.37991V2.15991C90.98 2.15991 102.83 2.3299 111.24 2.3299C121.32 2.3299 129.99 3.25992 134.75 6.19992C137.298 7.81883 139.384 10.0694 140.805 12.7328C142.226 15.3962 142.934 18.382 142.86 21.3999C142.86 30.7199 135.31 35.7999 130.95 37.9299C126.547 39.9071 121.776 40.9295 116.95 40.9299L116.78 38.1799C127.72 36.1799 131.69 30.2699 131.69 21.4599C131.69 11.6299 125.33 6.6399 117.21 5.9899C111.85 5.5599 109.51 6.2099 109.51 6.2099V60.0799Z" fill="#007D55"/>
</svg>
