<svg width="32" height="32" viewBox="0 0 32 32" fill="none" xmlns="http://www.w3.org/2000/svg">
<path d="M0 16C0 7.16344 7.16344 0 16 0C24.8366 0 32 7.16344 32 16C32 24.8366 24.8366 32 16 32C7.16344 32 0 24.8366 0 16Z" fill="#007D55"/>
<path d="M8.432 20H9.416L10.244 17.528H13.784L14.624 20H15.656L12.752 11.42H11.384L8.432 20ZM12.02 12.284L13.508 16.7H10.532L12.02 12.284ZM17.1659 20H18.2099V16.508H19.6019C21.2339 16.508 22.6019 15.8 22.6019 13.976V13.928C22.6019 12.14 21.2459 11.42 19.6019 11.42H17.1659V20ZM18.2099 15.68V12.26H19.6739C20.8379 12.26 21.5579 12.716 21.5579 13.928V13.976C21.5579 15.08 20.8979 15.68 19.6739 15.68H18.2099Z" fill="white"/>
</svg>
